<mxfile host="app.diagrams.net" agent="Mozilla/5.0 (Windows NT 10.0; Win64; x64) AppleWebKit/537.36 (KHTML, like Gecko) Chrome/137.0.0.0 Safari/537.36" version="27.0.5">
  <diagram name="第 1 页" id="S45m3A3-TABKn-KNXJ7T">
    <mxGraphModel dx="1199" dy="800" grid="1" gridSize="10" guides="1" tooltips="1" connect="1" arrows="1" fold="1" page="1" pageScale="1" pageWidth="827" pageHeight="1169" math="0" shadow="0">
      <root>
        <mxCell id="0" />
        <mxCell id="1" parent="0" />
        <mxCell id="5U6OoYA0bKBvAFRbaWtJ-12" value="非关键帧处理&lt;div&gt;&lt;br&gt;&lt;/div&gt;&lt;div&gt;&lt;br&gt;&lt;/div&gt;&lt;div&gt;&lt;br&gt;&lt;/div&gt;&lt;div&gt;&lt;br&gt;&lt;/div&gt;&lt;div&gt;&lt;br&gt;&lt;/div&gt;" style="rounded=0;whiteSpace=wrap;html=1;verticalAlign=top;" vertex="1" parent="1">
          <mxGeometry x="840" y="205" width="550" height="110" as="geometry" />
        </mxCell>
        <mxCell id="5U6OoYA0bKBvAFRbaWtJ-11" value="关键帧处理&lt;div&gt;&lt;br&gt;&lt;/div&gt;&lt;div&gt;&lt;br&gt;&lt;/div&gt;&lt;div&gt;&lt;br&gt;&lt;/div&gt;&lt;div&gt;&lt;br&gt;&lt;/div&gt;&lt;div&gt;&lt;br&gt;&lt;/div&gt;" style="rounded=0;whiteSpace=wrap;html=1;verticalAlign=top;" vertex="1" parent="1">
          <mxGeometry x="840" y="90" width="550" height="110" as="geometry" />
        </mxCell>
        <mxCell id="18P_A_MpnNHtjWT6lAcr-1" style="edgeStyle=orthogonalEdgeStyle;rounded=0;orthogonalLoop=1;jettySize=auto;html=1;entryX=1;entryY=0.5;entryDx=0;entryDy=0;fontSize=15;" parent="1" source="18P_A_MpnNHtjWT6lAcr-2" target="18P_A_MpnNHtjWT6lAcr-10" edge="1">
          <mxGeometry relative="1" as="geometry">
            <Array as="points">
              <mxPoint x="330" y="380" />
            </Array>
          </mxGeometry>
        </mxCell>
        <mxCell id="18P_A_MpnNHtjWT6lAcr-2" value="共享的背景图像" style="rounded=1;whiteSpace=wrap;html=1;fontSize=15;" parent="1" vertex="1">
          <mxGeometry x="270" y="240" width="120" height="60" as="geometry" />
        </mxCell>
        <mxCell id="18P_A_MpnNHtjWT6lAcr-3" value="" style="edgeStyle=orthogonalEdgeStyle;rounded=0;orthogonalLoop=1;jettySize=auto;html=1;fontSize=15;" parent="1" source="18P_A_MpnNHtjWT6lAcr-4" target="18P_A_MpnNHtjWT6lAcr-6" edge="1">
          <mxGeometry relative="1" as="geometry" />
        </mxCell>
        <mxCell id="18P_A_MpnNHtjWT6lAcr-4" value="人物的高斯点" style="rounded=1;whiteSpace=wrap;html=1;fontSize=15;" parent="1" vertex="1">
          <mxGeometry x="90" y="40" width="120" height="60" as="geometry" />
        </mxCell>
        <mxCell id="18P_A_MpnNHtjWT6lAcr-5" value="" style="edgeStyle=orthogonalEdgeStyle;rounded=0;orthogonalLoop=1;jettySize=auto;html=1;fontSize=15;" parent="1" source="18P_A_MpnNHtjWT6lAcr-6" target="18P_A_MpnNHtjWT6lAcr-8" edge="1">
          <mxGeometry relative="1" as="geometry" />
        </mxCell>
        <mxCell id="18P_A_MpnNHtjWT6lAcr-6" value="渲染" style="shape=parallelogram;perimeter=parallelogramPerimeter;whiteSpace=wrap;html=1;fixedSize=1;fontSize=15;" parent="1" vertex="1">
          <mxGeometry x="90" y="140" width="120" height="60" as="geometry" />
        </mxCell>
        <mxCell id="18P_A_MpnNHtjWT6lAcr-7" style="edgeStyle=orthogonalEdgeStyle;rounded=0;orthogonalLoop=1;jettySize=auto;html=1;entryX=0;entryY=0.5;entryDx=0;entryDy=0;fontSize=15;" parent="1" source="18P_A_MpnNHtjWT6lAcr-8" target="18P_A_MpnNHtjWT6lAcr-10" edge="1">
          <mxGeometry relative="1" as="geometry">
            <Array as="points">
              <mxPoint x="150" y="380" />
            </Array>
          </mxGeometry>
        </mxCell>
        <mxCell id="18P_A_MpnNHtjWT6lAcr-8" value="人物图像" style="rounded=1;whiteSpace=wrap;html=1;fontSize=15;" parent="1" vertex="1">
          <mxGeometry x="90" y="240" width="120" height="60" as="geometry" />
        </mxCell>
        <mxCell id="18P_A_MpnNHtjWT6lAcr-9" value="" style="edgeStyle=orthogonalEdgeStyle;rounded=0;orthogonalLoop=1;jettySize=auto;html=1;fontSize=15;" parent="1" source="18P_A_MpnNHtjWT6lAcr-10" target="18P_A_MpnNHtjWT6lAcr-14" edge="1">
          <mxGeometry relative="1" as="geometry" />
        </mxCell>
        <mxCell id="18P_A_MpnNHtjWT6lAcr-10" value="图像合成" style="shape=parallelogram;perimeter=parallelogramPerimeter;whiteSpace=wrap;html=1;fixedSize=1;fontSize=15;" parent="1" vertex="1">
          <mxGeometry x="180" y="350" width="120" height="60" as="geometry" />
        </mxCell>
        <mxCell id="18P_A_MpnNHtjWT6lAcr-11" style="edgeStyle=orthogonalEdgeStyle;rounded=0;orthogonalLoop=1;jettySize=auto;html=1;entryX=1;entryY=0.5;entryDx=0;entryDy=0;fontSize=15;" parent="1" source="18P_A_MpnNHtjWT6lAcr-12" target="18P_A_MpnNHtjWT6lAcr-17" edge="1">
          <mxGeometry relative="1" as="geometry">
            <Array as="points">
              <mxPoint x="530" y="600" />
            </Array>
          </mxGeometry>
        </mxCell>
        <mxCell id="18P_A_MpnNHtjWT6lAcr-12" value="&lt;div&gt;原始图像&lt;/div&gt;&lt;div&gt;（真值）&lt;/div&gt;" style="rounded=1;whiteSpace=wrap;html=1;fontSize=15;" parent="1" vertex="1">
          <mxGeometry x="470" y="240" width="120" height="60" as="geometry" />
        </mxCell>
        <mxCell id="18P_A_MpnNHtjWT6lAcr-13" style="edgeStyle=orthogonalEdgeStyle;rounded=0;orthogonalLoop=1;jettySize=auto;html=1;entryX=0;entryY=0.5;entryDx=0;entryDy=0;fontSize=15;" parent="1" source="18P_A_MpnNHtjWT6lAcr-14" target="18P_A_MpnNHtjWT6lAcr-17" edge="1">
          <mxGeometry relative="1" as="geometry">
            <Array as="points">
              <mxPoint x="240" y="600" />
            </Array>
          </mxGeometry>
        </mxCell>
        <mxCell id="18P_A_MpnNHtjWT6lAcr-14" value="合成图像" style="rounded=1;whiteSpace=wrap;html=1;fontSize=15;" parent="1" vertex="1">
          <mxGeometry x="180" y="460" width="120" height="60" as="geometry" />
        </mxCell>
        <mxCell id="18P_A_MpnNHtjWT6lAcr-15" style="edgeStyle=orthogonalEdgeStyle;rounded=0;orthogonalLoop=1;jettySize=auto;html=1;entryX=0;entryY=0.5;entryDx=0;entryDy=0;fontSize=15;" parent="1" source="18P_A_MpnNHtjWT6lAcr-17" target="18P_A_MpnNHtjWT6lAcr-4" edge="1">
          <mxGeometry relative="1" as="geometry">
            <Array as="points">
              <mxPoint x="374" y="700" />
              <mxPoint x="40" y="700" />
              <mxPoint x="40" y="70" />
            </Array>
          </mxGeometry>
        </mxCell>
        <mxCell id="18P_A_MpnNHtjWT6lAcr-16" value="梯度优化" style="edgeLabel;html=1;align=center;verticalAlign=middle;resizable=0;points=[];fontSize=15;" parent="18P_A_MpnNHtjWT6lAcr-15" vertex="1" connectable="0">
          <mxGeometry x="0.0995" y="2" relative="1" as="geometry">
            <mxPoint as="offset" />
          </mxGeometry>
        </mxCell>
        <mxCell id="18P_A_MpnNHtjWT6lAcr-17" value="计算loss" style="shape=parallelogram;perimeter=parallelogramPerimeter;whiteSpace=wrap;html=1;fixedSize=1;fontSize=15;" parent="1" vertex="1">
          <mxGeometry x="314" y="570" width="120" height="60" as="geometry" />
        </mxCell>
        <mxCell id="5U6OoYA0bKBvAFRbaWtJ-7" style="edgeStyle=none;curved=1;rounded=0;orthogonalLoop=1;jettySize=auto;html=1;fontSize=12;startSize=8;endSize=8;" edge="1" parent="1" source="5U6OoYA0bKBvAFRbaWtJ-1" target="5U6OoYA0bKBvAFRbaWtJ-2">
          <mxGeometry relative="1" as="geometry" />
        </mxCell>
        <mxCell id="5U6OoYA0bKBvAFRbaWtJ-1" value="S1 初始训练&lt;div&gt;（关键帧完整场景训练）&lt;/div&gt;" style="rounded=1;whiteSpace=wrap;html=1;" vertex="1" parent="1">
          <mxGeometry x="890" y="120" width="120" height="60" as="geometry" />
        </mxCell>
        <mxCell id="5U6OoYA0bKBvAFRbaWtJ-8" style="edgeStyle=none;curved=1;rounded=0;orthogonalLoop=1;jettySize=auto;html=1;entryX=0;entryY=0.5;entryDx=0;entryDy=0;fontSize=12;startSize=8;endSize=8;" edge="1" parent="1" source="5U6OoYA0bKBvAFRbaWtJ-2" target="5U6OoYA0bKBvAFRbaWtJ-3">
          <mxGeometry relative="1" as="geometry" />
        </mxCell>
        <mxCell id="5U6OoYA0bKBvAFRbaWtJ-2" value="S2.背景提取&amp;nbsp;&lt;div&gt;(静态背景分离)&lt;/div&gt;" style="rounded=1;whiteSpace=wrap;html=1;" vertex="1" parent="1">
          <mxGeometry x="1070" y="120" width="120" height="60" as="geometry" />
        </mxCell>
        <mxCell id="5U6OoYA0bKBvAFRbaWtJ-3" value="S3.背景预渲染&amp;nbsp;&lt;div&gt;(缓存背景图)&lt;/div&gt;" style="rounded=1;whiteSpace=wrap;html=1;" vertex="1" parent="1">
          <mxGeometry x="1241" y="120" width="120" height="60" as="geometry" />
        </mxCell>
        <mxCell id="5U6OoYA0bKBvAFRbaWtJ-9" style="edgeStyle=none;curved=1;rounded=0;orthogonalLoop=1;jettySize=auto;html=1;entryX=0;entryY=0.5;entryDx=0;entryDy=0;fontSize=12;startSize=8;endSize=8;" edge="1" parent="1" source="5U6OoYA0bKBvAFRbaWtJ-4" target="5U6OoYA0bKBvAFRbaWtJ-5">
          <mxGeometry relative="1" as="geometry" />
        </mxCell>
        <mxCell id="5U6OoYA0bKBvAFRbaWtJ-4" value="S4.前景初始化&lt;div&gt;(非关键帧用关键帧前景点云初始化）&lt;/div&gt;" style="rounded=1;whiteSpace=wrap;html=1;" vertex="1" parent="1">
          <mxGeometry x="890" y="235" width="120" height="60" as="geometry" />
        </mxCell>
        <mxCell id="5U6OoYA0bKBvAFRbaWtJ-10" style="edgeStyle=none;curved=1;rounded=0;orthogonalLoop=1;jettySize=auto;html=1;entryX=0;entryY=0.5;entryDx=0;entryDy=0;fontSize=12;startSize=8;endSize=8;" edge="1" parent="1" source="5U6OoYA0bKBvAFRbaWtJ-5" target="5U6OoYA0bKBvAFRbaWtJ-6">
          <mxGeometry relative="1" as="geometry" />
        </mxCell>
        <mxCell id="5U6OoYA0bKBvAFRbaWtJ-5" value="S5.前景训练&amp;nbsp;&lt;div&gt;(动态前景独立优化训练)&lt;/div&gt;" style="rounded=1;whiteSpace=wrap;html=1;" vertex="1" parent="1">
          <mxGeometry x="1070" y="235" width="120" height="60" as="geometry" />
        </mxCell>
        <mxCell id="5U6OoYA0bKBvAFRbaWtJ-6" value="S6.场景融合&lt;div&gt;(精细化后处理)&lt;/div&gt;" style="rounded=1;whiteSpace=wrap;html=1;" vertex="1" parent="1">
          <mxGeometry x="1241" y="235" width="120" height="60" as="geometry" />
        </mxCell>
      </root>
    </mxGraphModel>
  </diagram>
</mxfile>
